<svg width="163" height="39" viewBox="0 0 163 39" fill="none" xmlns="http://www.w3.org/2000/svg">
<g clip-path="url(#clip0_40_1793)">
<path fill-rule="evenodd" clip-rule="evenodd" d="M27.8103 18.383L27.7574 18.3412C28.9429 16.5862 29.5363 14.4509 29.5363 11.9368C29.5363 8.20673 28.2912 5.28312 25.8011 3.16876C23.3096 1.05301 19.8833 -0.00278022 15.5194 5.49812e-06H4.64975V1.56279H15.323C19.0324 1.56279 22.3409 2.41104 24.4395 4.17023C26.3918 5.80823 27.1085 7.2178 27.6802 9.32659C27.099 7.40305 25.732 6.1648 24.8825 5.43773C23.3949 4.15212 21.547 3.25233 16.5125 3.25233H8.13026V4.77612H16.3255C20.6216 4.77612 22.1986 5.32073 23.6442 6.42109C25.4935 7.83066 26.6411 9.51323 26.6411 11.9438C26.6411 14.132 25.8946 15.3033 24.64 16.5179C24.4937 16.4594 24.346 16.4009 24.1956 16.3466L24.3379 16.2686C25.6968 15.4983 26.637 14.0177 26.637 11.9368C26.637 9.66227 25.3689 8.24155 24.1292 7.44066C22.9655 6.6913 21.8586 6.18848 17.133 6.18848H11.1068V7.20387H16.9636C21.2286 7.20387 22.8449 7.98387 23.3353 8.2917C24.2932 8.8962 25.5586 9.94363 25.5586 11.9521C25.5586 13.2336 24.8229 14.7755 23.735 15.4036C23.3814 15.6056 23.0088 15.7672 22.6227 15.8897C21.0051 15.5123 19.3481 15.3298 17.6885 15.3451H10.4199V16.9065H17.4893C21.1974 16.9065 24.556 17.6921 26.6059 19.5154C28.153 20.8692 29.2789 22.6604 29.8439 24.6689C29.2653 22.7454 28.0772 21.5782 27.0489 20.7801C25.4922 19.5697 23.7133 18.5933 18.6788 18.5961H7.28215V20.1185H18.4919C22.788 20.1185 24.3623 20.6631 25.8092 21.7634C27.6599 23.173 28.7898 24.857 28.7898 27.2861C28.7898 29.6275 27.6423 31.3365 25.7835 32.7461C23.8813 34.1877 20.9752 34.2309 19.7925 34.2309H13.5658V35.7519H18.2209C22.116 35.7519 24.7186 35.4093 26.9703 33.6933C29.0824 32.0776 30.2056 29.9897 30.2056 27.2875C30.2259 28.7361 29.9238 30.1693 29.3222 31.4772C28.7194 32.7865 27.8333 33.9356 26.7332 34.8368C24.6007 36.6489 20.7951 37.447 16.988 37.447H4.73375V39.0001H17.0747C21.6703 39.0001 25.2578 37.9735 27.836 35.9204C30.4129 33.8688 31.704 30.9842 31.7067 27.2694C31.6972 23.5351 30.4481 20.6115 27.9552 18.5C27.9078 18.4596 27.8591 18.4206 27.8103 18.383ZM28.0298 12.136C28.0257 14.0219 27.4743 15.8661 26.4433 17.4316C26.3119 17.3536 26.1791 17.2784 26.045 17.2018C27.3117 15.834 28.0203 14.0205 28.0298 12.136ZM20.39 25.0798H9.70862V25.9309H20.39V25.0798ZM14.1131 28.1762H20.3263V28.9046H14.1131V28.1762ZM7.88504 25.0798H4.72155V25.9309H7.88504V25.0798ZM2.74894 28.1163H12.3586V28.9659H2.74894V28.1163ZM11.7923 34.6084H2.74894V35.6279H11.7923V34.6084ZM5.11716 6.42526H8.86186V7.12727H5.11716V6.42526ZM11.0851 12.0078H2.50779V12.8241H11.0851V12.0078ZM6.14546 9.51323H20.3466V10.3294H6.14546V9.51323ZM20.077 12.0078H13.246V12.8241H20.077V12.0078ZM28.7763 27.2722C28.7763 29.2375 27.8536 30.7084 26.492 31.4508C25.1359 32.1904 23.2148 32.6152 19.9659 32.6152H0.21138V31.6486H19.8765C22.8747 31.6486 24.8893 31.1513 25.881 30.5983C26.9703 29.9869 27.706 28.5035 27.706 27.268C27.706 25.3347 26.4406 24.3165 25.4827 23.7329C24.9936 23.4363 23.3746 22.6827 19.1124 22.6827H11.6094V21.7161H19.2885C24.0994 21.7161 25.121 22.2036 26.2861 22.9251C27.5258 23.7009 28.7763 25.0784 28.7763 27.2722ZM66.9495 10.0537C66.3872 10.069 65.8385 9.88652 65.3928 9.53413C65.1909 9.38509 65.0283 9.1873 64.9173 8.95888C64.8048 8.73184 64.7479 8.47834 64.7493 8.22344C64.7479 7.96716 64.8048 7.71366 64.9159 7.48384C65.0283 7.25402 65.1909 7.05623 65.3928 6.90441C65.8358 6.54644 66.3859 6.3598 66.9495 6.37791C67.5212 6.3598 68.0807 6.54644 68.5346 6.90441C68.7378 7.05205 68.9031 7.24705 69.0183 7.47548C69.1321 7.70252 69.1917 7.95462 69.1917 8.21091C69.1917 8.4672 69.1321 8.7193 69.0183 8.94773C68.9031 9.17477 68.7378 9.37116 68.5346 9.5188C68.0821 9.88095 67.5226 10.0704 66.9495 10.0537ZM68.6078 32.2113H65.2085V14.5401H68.6078V32.2113ZM43.0302 32.2113V7.46434H51.4789C54.0476 7.46434 56.0866 7.98666 57.5918 9.03409C59.0983 10.0801 59.8516 11.4423 59.8516 13.1235C59.8692 14.4788 59.3801 15.7895 58.4832 16.784C57.5715 17.8202 56.3115 18.5571 54.7033 18.993V19.0613C56.7057 19.2577 58.3085 19.8872 59.5116 20.9514C60.0968 21.4584 60.5629 22.0949 60.8758 22.8136C61.1875 23.5324 61.3378 24.3138 61.3148 25.1007C61.3148 27.2193 60.403 28.9339 58.5794 30.2432C56.7559 31.5538 54.4581 32.2099 51.6861 32.2113H43.0302ZM46.5121 10.0885V18.0779H50.0699C51.9761 18.0779 53.4745 17.6977 54.5651 16.9344C55.0881 16.5876 55.5135 16.107 55.8007 15.5387C56.0879 14.9718 56.2275 14.3367 56.2044 13.6974C56.2044 11.2947 54.305 10.0927 50.5061 10.0927L46.5121 10.0885ZM46.5121 20.684V29.5899H51.2364C53.2808 29.5899 54.8673 29.186 55.9931 28.3809C56.5269 28.0243 56.9631 27.5313 57.2585 26.9518C57.5552 26.371 57.7015 25.7219 57.6825 25.0673C57.6825 22.1465 55.2927 20.6854 50.5115 20.684H46.5121ZM80.4637 32.5901C81.7779 32.5915 82.8347 32.4077 83.6354 32.0399L83.6421 29.6233C82.9688 30.0287 82.1979 30.232 81.4175 30.2097C80.2971 30.2097 79.495 29.9562 79.0127 29.4492C78.5291 28.9436 78.2865 28.0982 78.2865 26.9128V16.9553H83.6354V14.5401H78.2865V9.30988L74.89 10.225V14.5401H71.2402V16.9553H74.89V27.4143C74.8887 30.8644 76.7461 32.5901 80.4637 32.5901ZM114.505 32.2113H111.321V16.94C111.337 15.4593 111.425 13.9815 111.588 12.5107H111.512C111.309 13.2712 111.034 14.0094 110.692 14.7156L101.352 32.2113H99.7956L90.4731 14.8437C90.1195 14.0985 89.8445 13.3157 89.6521 12.5107H89.5762C89.7009 13.9941 89.7523 15.483 89.7293 16.9706V32.2113H86.6214V9.44498H90.8457L99.236 25.3208C99.7292 26.1927 100.149 27.1064 100.495 28.0522H100.61C101.156 26.8028 101.593 25.8724 101.924 25.2595L110.485 9.44498H114.487L114.505 32.2113ZM131.772 32.2113H135.172V20.7188C135.171 16.3229 132.677 14.125 127.69 14.125C124.967 14.125 122.562 14.678 120.477 15.7811V18.6824C122.51 17.2394 124.93 16.4803 127.4 16.5068C130.315 16.5082 131.772 18.0097 131.772 21.0113L125.411 21.7537C120.74 22.2941 118.404 24.2149 118.404 27.5173C118.386 28.2388 118.539 28.9548 118.852 29.601C119.164 30.2473 119.626 30.8059 120.196 31.2265C121.393 32.1583 123.047 32.6249 125.162 32.6249C128.031 32.6263 130.207 31.5678 131.689 29.4492H131.772V32.2113ZM126.657 23.8597L131.772 23.2733L131.785 25.0325C131.8 25.7428 131.661 26.4462 131.375 27.0939C131.09 27.7402 130.666 28.3127 130.138 28.7681C129.039 29.7515 127.648 30.2432 125.962 30.2432C124.735 30.2432 123.75 29.9702 123.009 29.4242C122.666 29.1971 122.384 28.8837 122.189 28.5146C121.996 28.1441 121.895 27.7304 121.897 27.3112C121.905 26.1245 122.306 25.2985 123.1 24.8333C123.895 24.3681 125.08 24.0435 126.657 23.8597ZM150.945 17.4038C150.353 17.0235 149.496 16.8341 148.375 16.8341C147.684 16.823 146.999 16.9692 146.369 17.2659C145.74 17.5612 145.182 17.9971 144.737 18.5431C143.763 19.6825 143.277 21.2355 143.277 23.2023V32.2113H139.879V14.5401H143.277V18.1838H143.361C143.796 17.004 144.572 15.9886 145.584 15.2755C146.566 14.5846 147.73 14.2197 148.92 14.2308C149.605 14.2058 150.289 14.288 150.951 14.4732V14.5401H154.037V10.225L157.435 9.30988V14.5401H162.771V16.9553H157.435V26.9128C157.435 28.0982 157.676 28.9436 158.16 29.4492C158.643 29.9562 159.445 30.2097 160.566 30.2097C161.345 30.232 162.116 30.0287 162.789 29.6233L162.782 32.0399C161.981 32.4077 160.925 32.5915 159.612 32.5901C155.893 32.5901 154.036 30.8644 154.037 27.4143V16.9553H150.947L150.945 17.4038ZM0.493181 37.4582H2.75572V38.9374H0.493181V37.4582Z" fill="white"/>
</g>
<defs>
<clipPath id="clip0_40_1793">
<rect width="163" height="39" fill="white"/>
</clipPath>
</defs>
</svg>
